<svg
  xmlns="http://www.w3.org/2000/svg"
  width="1280"
  height="640"
  viewBox="-114.3 -10.4 415.6 207.8"
  role="img"
  aria-labelledby="title"
>
  <title id="title">cz_keep_a_changelog_plugin logo</title>
  <defs>
    <mask id="text">
      <rect width="100%" height="100%" fill="#fff" />
      <text
        x="82"
        y="74"
        dominant-baseline="middle"
        fill="#000"
        font-family="Liberation Sans"
        font-size="60"
        font-weight="bold"
        text-anchor="middle"
      >CZ</text>
      <text
        x="86"
        y="130"
        dominant-baseline="middle"
        fill="#000"
        font-family="Liberation Sans"
        font-size="60"
        font-weight="bold"
        text-anchor="middle"
      >K</text>
     </mask>
  </defs>
  <path
    d="M62.09,6.5c-15.39,3.08-27.7,10.71-36.6,22.67C14.11,44.48,7.71,63.39,5.36,88.69c-.92,10,.06,20.05,1.34,31.18a73.74,73.74,0,0,0,15.86,38.56c6.9,8.56,14.82,14.18,24.2,17.19a88.55,88.55,0,0,0,24.67,4.25,45.42,45.42,0,0,0,5.88-.25l3.08-.31c4.24-.43,8.49-.86,12.73-1.37a158.36,158.36,0,0,0,54.68-16.7c14.84-7.75,25.22-19.18,30.84-34,2.62-6.88,3.87-12.67,3.87-18.08a33.91,33.91,0,0,0-.47-5.64c-3-17.59-9.14-32.75-18.9-46.33-12.09-16.83-24.32-28.68-38.48-37.31C103.11,6.76,82.64,2.38,62.09,6.5Zm29.73,8.13c20.19,4.42,38,14.81,52.92,30.87,16.92,18.2,26.56,37.31,29.49,58.42.53,3.91-.09,8.24-.71,12-2.87,17.21-12.3,30.05-28,38.16a155.31,155.31,0,0,1-53,16.14c-4.13.49-8.28.91-13,1.39l-.65.07a50.59,50.59,0,0,1-12.26-.23h0c-5.11-.72-10.89-1.55-16.45-2.87-13.07-3.11-22.7-12-29.42-27.06-5.06-11.37-7.68-24-8-38.7a132.53,132.53,0,0,1,8.5-50.28C25.83,40.4,32.46,27,46.85,19.86,61,12.82,75.74,11.11,91.83,14.63Z"
    fill="#f25d30"
  />
  <path
    d="M39.83,44.82C28.74,60.48,23,78.7,22.74,99a74.87,74.87,0,0,0,5.94,32.45c8,19,22.58,30.06,42.21,32,20.68,2,41-2.82,60.49-14.33a60.07,60.07,0,0,0,20.5-19.41,52.54,52.54,0,0,0,8.64-28.54c0-16-7.51-33.07-22.55-50.76a47.36,47.36,0,0,0-5.21-5.23c-23-19.78-44.72-25.81-66.87-18.4C54.05,30.67,45.78,36.43,39.83,44.82Z"
    fill="#f25d30"
    mask="url(#text)"
  />
</svg>
